<svg width="65" height="63" viewBox="0 0 65 63" fill="none" xmlns="http://www.w3.org/2000/svg">
<path d="M0.999941 62.672C0.850239 15.3897 39.8925 15.9923 40.17 47.004" stroke="#324154" stroke-width="2"/>
<circle cx="22.6071" cy="13.0095" r="12.0095" stroke="#324154" stroke-width="2"/>
<path d="M39.1402 41.7814H41.6756L42.5208 45.5845H38.295L39.1402 41.7814Z" fill="#324154"/>
<path d="M39.1402 62.672H41.6756L42.5208 58.8688H38.295L39.1402 62.672Z" fill="#324154"/>
<path d="M51.151 53.792V51.2565L47.3478 50.4114V54.6371L51.151 53.792Z" fill="#324154"/>
<path d="M29.7246 54.3277V51.7923L33.5278 50.9471V55.1729L29.7246 54.3277Z" fill="#324154"/>
<rect x="33.8673" y="45.924" width="12.8471" height="12.8471" rx="6.42356" stroke="#324154" stroke-width="4"/>
<path d="M46.9007 43.986L48.6935 45.7788L46.6019 49.0657L43.6139 46.0776L46.9007 43.986Z" fill="#324154"/>
<path d="M33.7641 43.986L31.9712 45.7788L34.0629 49.0657L37.0509 46.0776L33.7641 43.986Z" fill="#324154"/>
<path d="M46.9007 60.7924L48.6935 58.9996L46.6019 55.7127L43.6139 58.7008L46.9007 60.7924Z" fill="#324154"/>
<path d="M33.7641 60.7924L31.9712 58.9996L34.0629 55.7127L37.0509 58.7008L33.7641 60.7924Z" fill="#324154"/>
<path d="M48.3373 33.0769H49.8335L50.3322 35.3211H47.8386L48.3373 33.0769Z" fill="#324154"/>
<path d="M48.3373 45.4041H49.8335L50.3322 43.1599H47.8386L48.3373 45.4041Z" fill="#324154"/>
<path d="M55.4246 40.1642V38.6681L53.1804 38.1694V40.6629L55.4246 40.1642Z" fill="#324154"/>
<path d="M42.7812 40.4802V38.9841L45.0254 38.4854V40.9789L42.7812 40.4802Z" fill="#324154"/>
<rect x="45.2957" y="35.5912" width="7.4412" height="7.4412" rx="3.7206" stroke="#324154" stroke-width="2.5"/>
<path d="M52.9166 34.3778L53.9745 35.4357L52.7403 37.3752L50.9771 35.612L52.9166 34.3778Z" fill="#324154"/>
<path d="M45.1649 34.3778L44.107 35.4357L45.3413 37.3752L47.1045 35.612L45.1649 34.3778Z" fill="#324154"/>
<path d="M52.9166 44.295L53.9745 43.2371L52.7403 41.2976L50.9771 43.0608L52.9166 44.295Z" fill="#324154"/>
<path d="M45.1649 44.295L44.107 43.2371L45.3413 41.2976L47.1045 43.0608L45.1649 44.295Z" fill="#324154"/>
<path d="M57.9122 39.17H59.4083L59.907 41.4142H57.4135L57.9122 39.17Z" fill="#324154"/>
<path d="M57.9122 51.4973H59.4083L59.907 49.2531H57.4135L57.9122 51.4973Z" fill="#324154"/>
<path d="M64.9995 46.2573V44.7612L62.7553 44.2625V46.756L64.9995 46.2573Z" fill="#324154"/>
<path d="M52.3562 46.5734V45.0772L54.6004 44.5785V47.0721L52.3562 46.5734Z" fill="#324154"/>
<rect x="54.8705" y="41.6843" width="7.4412" height="7.4412" rx="3.7206" stroke="#324154" stroke-width="2.5"/>
<path d="M62.4916 40.4709L63.5495 41.5288L62.3152 43.4684L60.552 41.7052L62.4916 40.4709Z" fill="#324154"/>
<path d="M54.7398 40.4709L53.6818 41.5288L54.9161 43.4684L56.6793 41.7052L54.7398 40.4709Z" fill="#324154"/>
<path d="M62.4916 50.3881L63.5495 49.3302L62.3152 47.3906L60.552 49.1538L62.4916 50.3881Z" fill="#324154"/>
<path d="M54.7398 50.3881L53.6818 49.3302L54.9161 47.3906L56.6793 49.1538L54.7398 50.3881Z" fill="#324154"/>
</svg>
