<svg width="222" height="222" viewBox="0 0 222 222" fill="none" xmlns="http://www.w3.org/2000/svg">
<rect width="222" height="222" rx="15" fill="#69F961"/>
<path d="M0 190.92H222V207C222 215.284 215.284 222 207 222H15C6.71573 222 0 215.284 0 207V190.92Z" fill="#58BB65"/>
<mask id="path-3-outside-1_87_318" maskUnits="userSpaceOnUse" x="62" y="200" width="97" height="13" fill="black">
<rect fill="white" x="62" y="200" width="97" height="13"/>
<path d="M62.3541 212L67.2981 200.8H70.4181L75.3781 212H72.0821L68.2101 202.352H69.4581L65.5861 212H62.3541ZM65.0581 209.824L65.8741 207.488H71.3461L72.1621 209.824H65.0581ZM79.0913 212L74.3072 200.8H77.7313L81.7633 210.496H79.7473L83.8753 200.8H87.0113L82.2113 212H79.0913ZM85.9322 212L90.8763 200.8H93.9963L98.9563 212H95.6603L91.7883 202.352H93.0363L89.1643 212H85.9322ZM88.6363 209.824L89.4523 207.488H94.9243L95.7403 209.824H88.6363ZM99.8544 212V200.8H103.022V212H99.8544ZM105.276 212V200.8H108.444V209.488H113.788V212H105.276ZM113.807 212L118.751 200.8H121.871L126.831 212H123.535L119.663 202.352H120.911L117.039 212H113.807ZM116.511 209.824L117.327 207.488H122.799L123.615 209.824H116.511ZM127.729 212V200.8H133.457C134.929 200.8 136.028 201.072 136.753 201.616C137.479 202.149 137.841 202.853 137.841 203.728C137.841 204.304 137.687 204.811 137.377 205.248C137.079 205.675 136.652 206.016 136.097 206.272C135.553 206.517 134.903 206.64 134.145 206.64L134.465 205.872C135.255 205.872 135.943 205.995 136.529 206.24C137.116 206.475 137.569 206.821 137.889 207.28C138.22 207.728 138.385 208.277 138.385 208.928C138.385 209.899 137.991 210.656 137.201 211.2C136.423 211.733 135.281 212 133.777 212H127.729ZM130.865 209.712H133.521C134.065 209.712 134.476 209.621 134.753 209.44C135.041 209.248 135.185 208.96 135.185 208.576C135.185 208.192 135.041 207.909 134.753 207.728C134.476 207.536 134.065 207.44 133.521 207.44H130.641V205.248H133.041C133.575 205.248 133.975 205.157 134.241 204.976C134.508 204.795 134.641 204.523 134.641 204.16C134.641 203.797 134.508 203.531 134.241 203.36C133.975 203.179 133.575 203.088 133.041 203.088H130.865V209.712ZM140.026 212V200.8H143.194V209.488H148.538V212H140.026ZM149.792 212V200.8H158.576V203.248H152.928V209.552H158.784V212H149.792ZM152.704 207.504V205.136H157.904V207.504H152.704Z"/>
</mask>
<path d="M62.3541 212L67.2981 200.8H70.4181L75.3781 212H72.0821L68.2101 202.352H69.4581L65.5861 212H62.3541ZM65.0581 209.824L65.8741 207.488H71.3461L72.1621 209.824H65.0581ZM79.0913 212L74.3072 200.8H77.7313L81.7633 210.496H79.7473L83.8753 200.8H87.0113L82.2113 212H79.0913ZM85.9322 212L90.8763 200.8H93.9963L98.9563 212H95.6603L91.7883 202.352H93.0363L89.1643 212H85.9322ZM88.6363 209.824L89.4523 207.488H94.9243L95.7403 209.824H88.6363ZM99.8544 212V200.8H103.022V212H99.8544ZM105.276 212V200.8H108.444V209.488H113.788V212H105.276ZM113.807 212L118.751 200.8H121.871L126.831 212H123.535L119.663 202.352H120.911L117.039 212H113.807ZM116.511 209.824L117.327 207.488H122.799L123.615 209.824H116.511ZM127.729 212V200.8H133.457C134.929 200.8 136.028 201.072 136.753 201.616C137.479 202.149 137.841 202.853 137.841 203.728C137.841 204.304 137.687 204.811 137.377 205.248C137.079 205.675 136.652 206.016 136.097 206.272C135.553 206.517 134.903 206.64 134.145 206.64L134.465 205.872C135.255 205.872 135.943 205.995 136.529 206.24C137.116 206.475 137.569 206.821 137.889 207.28C138.22 207.728 138.385 208.277 138.385 208.928C138.385 209.899 137.991 210.656 137.201 211.2C136.423 211.733 135.281 212 133.777 212H127.729ZM130.865 209.712H133.521C134.065 209.712 134.476 209.621 134.753 209.44C135.041 209.248 135.185 208.96 135.185 208.576C135.185 208.192 135.041 207.909 134.753 207.728C134.476 207.536 134.065 207.44 133.521 207.44H130.641V205.248H133.041C133.575 205.248 133.975 205.157 134.241 204.976C134.508 204.795 134.641 204.523 134.641 204.16C134.641 203.797 134.508 203.531 134.241 203.36C133.975 203.179 133.575 203.088 133.041 203.088H130.865V209.712ZM140.026 212V200.8H143.194V209.488H148.538V212H140.026ZM149.792 212V200.8H158.576V203.248H152.928V209.552H158.784V212H149.792ZM152.704 207.504V205.136H157.904V207.504H152.704Z" fill="white"/>
<path d="M62.3541 212L62.1712 211.919L62.0472 212.2H62.3541V212ZM67.2981 200.8V200.6H67.1678L67.1152 200.719L67.2981 200.8ZM70.4181 200.8L70.601 200.719L70.5483 200.6H70.4181V200.8ZM75.3781 212V212.2H75.6854L75.561 211.919L75.3781 212ZM72.0821 212L71.8965 212.074L71.9469 212.2H72.0821V212ZM68.2101 202.352V202.152H67.9144L68.0245 202.426L68.2101 202.352ZM69.4581 202.352L69.6437 202.426L69.7539 202.152H69.4581V202.352ZM65.5861 212V212.2H65.7214L65.7717 212.074L65.5861 212ZM65.0581 209.824L64.8693 209.758L64.7764 210.024H65.0581V209.824ZM65.8741 207.488V207.288H65.7321L65.6853 207.422L65.8741 207.488ZM71.3461 207.488L71.5349 207.422L71.4881 207.288H71.3461V207.488ZM72.1621 209.824V210.024H72.4438L72.3509 209.758L72.1621 209.824ZM62.3541 212L62.5371 212.081L67.4811 200.881L67.2981 200.8L67.1152 200.719L62.1712 211.919L62.3541 212ZM67.2981 200.8V201H70.4181V200.8V200.6H67.2981V200.8ZM70.4181 200.8L70.2353 200.881L75.1953 212.081L75.3781 212L75.561 211.919L70.601 200.719L70.4181 200.8ZM75.3781 212V211.8H72.0821V212V212.2H75.3781V212ZM72.0821 212L72.2677 211.926L68.3957 202.278L68.2101 202.352L68.0245 202.426L71.8965 212.074L72.0821 212ZM68.2101 202.352V202.552H69.4581V202.352V202.152H68.2101V202.352ZM69.4581 202.352L69.2725 202.278L65.4005 211.926L65.5861 212L65.7717 212.074L69.6437 202.426L69.4581 202.352ZM65.5861 212V211.8H62.3541V212V212.2H65.5861V212ZM65.0581 209.824L65.2469 209.89L66.0629 207.554L65.8741 207.488L65.6853 207.422L64.8693 209.758L65.0581 209.824ZM65.8741 207.488V207.688H71.3461V207.488V207.288H65.8741V207.488ZM71.3461 207.488L71.1573 207.554L71.9733 209.89L72.1621 209.824L72.3509 209.758L71.5349 207.422L71.3461 207.488ZM72.1621 209.824V209.624H65.0581V209.824V210.024H72.1621V209.824ZM79.0913 212L78.9073 212.079L78.9592 212.2H79.0913V212ZM74.3072 200.8V200.6H74.0043L74.1233 200.879L74.3072 200.8ZM77.7313 200.8L77.9159 200.723L77.8647 200.6H77.7313V200.8ZM81.7633 210.496V210.696H82.063L81.9479 210.419L81.7633 210.496ZM79.7473 210.496L79.5632 210.418L79.4447 210.696H79.7473V210.496ZM83.8753 200.8V200.6H83.743L83.6912 200.722L83.8753 200.8ZM87.0113 200.8L87.1951 200.879L87.3146 200.6H87.0113V200.8ZM82.2113 212V212.2H82.3431L82.3951 212.079L82.2113 212ZM79.0913 212L79.2752 211.921L74.4912 200.721L74.3072 200.8L74.1233 200.879L78.9073 212.079L79.0913 212ZM74.3072 200.8V201H77.7313V200.8V200.6H74.3072V200.8ZM77.7313 200.8L77.5466 200.877L81.5786 210.573L81.7633 210.496L81.9479 210.419L77.9159 200.723L77.7313 200.8ZM81.7633 210.496V210.296H79.7473V210.496V210.696H81.7633V210.496ZM79.7473 210.496L79.9313 210.574L84.0593 200.878L83.8753 200.8L83.6912 200.722L79.5632 210.418L79.7473 210.496ZM83.8753 200.8V201H87.0113V200.8V200.6H83.8753V200.8ZM87.0113 200.8L86.8274 200.721L82.0274 211.921L82.2113 212L82.3951 212.079L87.1951 200.879L87.0113 200.8ZM82.2113 212V211.8H79.0913V212V212.2H82.2113V212ZM85.9322 212L85.7493 211.919L85.6253 212.2H85.9322V212ZM90.8763 200.8V200.6H90.7459L90.6933 200.719L90.8763 200.8ZM93.9963 200.8L94.1791 200.719L94.1264 200.6H93.9963V200.8ZM98.9563 212V212.2H99.2636L99.1391 211.919L98.9563 212ZM95.6603 212L95.4746 212.074L95.525 212.2H95.6603V212ZM91.7883 202.352V202.152H91.4925L91.6026 202.426L91.7883 202.352ZM93.0363 202.352L93.2219 202.426L93.332 202.152H93.0363V202.352ZM89.1643 212V212.2H89.2995L89.3499 212.074L89.1643 212ZM88.6363 209.824L88.4474 209.758L88.3545 210.024H88.6363V209.824ZM89.4523 207.488V207.288H89.3103L89.2634 207.422L89.4523 207.488ZM94.9243 207.488L95.1131 207.422L95.0662 207.288H94.9243V207.488ZM95.7403 209.824V210.024H96.022L95.9291 209.758L95.7403 209.824ZM85.9322 212L86.1152 212.081L91.0592 200.881L90.8763 200.8L90.6933 200.719L85.7493 211.919L85.9322 212ZM90.8763 200.8V201H93.9963V200.8V200.6H90.8763V200.8ZM93.9963 200.8L93.8134 200.881L98.7734 212.081L98.9563 212L99.1391 211.919L94.1791 200.719L93.9963 200.8ZM98.9563 212V211.8H95.6603V212V212.2H98.9563V212ZM95.6603 212L95.8459 211.926L91.9739 202.278L91.7883 202.352L91.6026 202.426L95.4746 212.074L95.6603 212ZM91.7883 202.352V202.552H93.0363V202.352V202.152H91.7883V202.352ZM93.0363 202.352L92.8506 202.278L88.9786 211.926L89.1643 212L89.3499 212.074L93.2219 202.426L93.0363 202.352ZM89.1643 212V211.8H85.9322V212V212.2H89.1643V212ZM88.6363 209.824L88.8251 209.89L89.6411 207.554L89.4523 207.488L89.2634 207.422L88.4474 209.758L88.6363 209.824ZM89.4523 207.488V207.688H94.9243V207.488V207.288H89.4523V207.488ZM94.9243 207.488L94.7354 207.554L95.5514 209.89L95.7403 209.824L95.9291 209.758L95.1131 207.422L94.9243 207.488ZM95.7403 209.824V209.624H88.6363V209.824V210.024H95.7403V209.824ZM99.8544 212H99.6544V212.2H99.8544V212ZM99.8544 200.8V200.6H99.6544V200.8H99.8544ZM103.022 200.8H103.222V200.6H103.022V200.8ZM103.022 212V212.2H103.222V212H103.022ZM99.8544 212H100.054V200.8H99.8544H99.6544V212H99.8544ZM99.8544 200.8V201H103.022V200.8V200.6H99.8544V200.8ZM103.022 200.8H102.822V212H103.022H103.222V200.8H103.022ZM103.022 212V211.8H99.8544V212V212.2H103.022V212ZM105.276 212H105.076V212.2H105.276V212ZM105.276 200.8V200.6H105.076V200.8H105.276ZM108.444 200.8H108.644V200.6H108.444V200.8ZM108.444 209.488H108.244V209.688H108.444V209.488ZM113.788 209.488H113.988V209.288H113.788V209.488ZM113.788 212V212.2H113.988V212H113.788ZM105.276 212H105.476V200.8H105.276H105.076V212H105.276ZM105.276 200.8V201H108.444V200.8V200.6H105.276V200.8ZM108.444 200.8H108.244V209.488H108.444H108.644V200.8H108.444ZM108.444 209.488V209.688H113.788V209.488V209.288H108.444V209.488ZM113.788 209.488H113.588V212H113.788H113.988V209.488H113.788ZM113.788 212V211.8H105.276V212V212.2H113.788V212ZM113.807 212L113.624 211.919L113.5 212.2H113.807V212ZM118.751 200.8V200.6H118.621L118.568 200.719L118.751 200.8ZM121.871 200.8L122.054 200.719L122.001 200.6H121.871V200.8ZM126.831 212V212.2H127.139L127.014 211.919L126.831 212ZM123.535 212L123.35 212.074L123.4 212.2H123.535V212ZM119.663 202.352V202.152H119.367L119.478 202.426L119.663 202.352ZM120.911 202.352L121.097 202.426L121.207 202.152H120.911V202.352ZM117.039 212V212.2H117.174L117.225 212.074L117.039 212ZM116.511 209.824L116.322 209.758L116.23 210.024H116.511V209.824ZM117.327 207.488V207.288H117.185L117.138 207.422L117.327 207.488ZM122.799 207.488L122.988 207.422L122.941 207.288H122.799V207.488ZM123.615 209.824V210.024H123.897L123.804 209.758L123.615 209.824ZM113.807 212L113.99 212.081L118.934 200.881L118.751 200.8L118.568 200.719L113.624 211.919L113.807 212ZM118.751 200.8V201H121.871V200.8V200.6H118.751V200.8ZM121.871 200.8L121.688 200.881L126.648 212.081L126.831 212L127.014 211.919L122.054 200.719L121.871 200.8ZM126.831 212V211.8H123.535V212V212.2H126.831V212ZM123.535 212L123.721 211.926L119.849 202.278L119.663 202.352L119.478 202.426L123.35 212.074L123.535 212ZM119.663 202.352V202.552H120.911V202.352V202.152H119.663V202.352ZM120.911 202.352L120.726 202.278L116.854 211.926L117.039 212L117.225 212.074L121.097 202.426L120.911 202.352ZM117.039 212V211.8H113.807V212V212.2H117.039V212ZM116.511 209.824L116.7 209.89L117.516 207.554L117.327 207.488L117.138 207.422L116.322 209.758L116.511 209.824ZM117.327 207.488V207.688H122.799V207.488V207.288H117.327V207.488ZM122.799 207.488L122.61 207.554L123.426 209.89L123.615 209.824L123.804 209.758L122.988 207.422L122.799 207.488ZM123.615 209.824V209.624H116.511V209.824V210.024H123.615V209.824ZM127.729 212H127.529V212.2H127.729V212ZM127.729 200.8V200.6H127.529V200.8H127.729ZM136.753 201.616L136.633 201.776L136.635 201.777L136.753 201.616ZM137.377 205.248L137.214 205.133L137.214 205.133L137.377 205.248ZM136.097 206.272L136.18 206.454L136.181 206.454L136.097 206.272ZM134.145 206.64L133.961 206.563L133.845 206.84H134.145V206.64ZM134.465 205.872V205.672H134.332L134.281 205.795L134.465 205.872ZM136.529 206.24L136.452 206.425L136.455 206.426L136.529 206.24ZM137.889 207.28L137.725 207.394L137.728 207.399L137.889 207.28ZM137.201 211.2L137.314 211.365L137.315 211.365L137.201 211.2ZM130.865 209.712H130.665V209.912H130.865V209.712ZM134.753 209.44L134.863 209.607L134.864 209.606L134.753 209.44ZM134.753 207.728L134.639 207.893L134.647 207.897L134.753 207.728ZM130.641 207.44H130.441V207.64H130.641V207.44ZM130.641 205.248V205.048H130.441V205.248H130.641ZM134.241 204.976L134.354 205.141L134.354 205.141L134.241 204.976ZM134.241 203.36L134.129 203.525L134.134 203.528L134.241 203.36ZM130.865 203.088V202.888H130.665V203.088H130.865ZM127.729 212H127.929V200.8H127.729H127.529V212H127.729ZM127.729 200.8V201H133.457V200.8V200.6H127.729V200.8ZM133.457 200.8V201C134.911 201 135.958 201.27 136.633 201.776L136.753 201.616L136.873 201.456C136.098 200.874 134.948 200.6 133.457 200.6V200.8ZM136.753 201.616L136.635 201.777C137.311 202.274 137.641 202.919 137.641 203.728H137.841H138.041C138.041 202.788 137.647 202.025 136.872 201.455L136.753 201.616ZM137.841 203.728H137.641C137.641 204.266 137.498 204.732 137.214 205.133L137.377 205.248L137.541 205.363C137.876 204.89 138.041 204.342 138.041 203.728H137.841ZM137.377 205.248L137.214 205.133C136.938 205.526 136.542 205.847 136.014 206.09L136.097 206.272L136.181 206.454C136.762 206.185 137.219 205.823 137.541 205.363L137.377 205.248ZM136.097 206.272L136.015 206.09C135.503 206.321 134.882 206.44 134.145 206.44V206.64V206.84C134.924 206.84 135.604 206.714 136.18 206.454L136.097 206.272ZM134.145 206.64L134.33 206.717L134.65 205.949L134.465 205.872L134.281 205.795L133.961 206.563L134.145 206.64ZM134.465 205.872V206.072C135.234 206.072 135.895 206.192 136.452 206.425L136.529 206.24L136.607 206.055C135.99 205.798 135.275 205.672 134.465 205.672V205.872ZM136.529 206.24L136.455 206.426C137.01 206.648 137.43 206.972 137.725 207.394L137.889 207.28L138.053 207.166C137.708 206.671 137.222 206.302 136.604 206.054L136.529 206.24ZM137.889 207.28L137.728 207.399C138.03 207.807 138.185 208.313 138.185 208.928H138.385H138.585C138.585 208.242 138.41 207.649 138.05 207.161L137.889 207.28ZM138.385 208.928H138.185C138.185 209.834 137.822 210.529 137.088 211.035L137.201 211.2L137.315 211.365C138.159 210.783 138.585 209.963 138.585 208.928H138.385ZM137.201 211.2L137.088 211.035C136.357 211.536 135.263 211.8 133.777 211.8V212V212.2C135.3 212.2 136.488 211.931 137.314 211.365L137.201 211.2ZM133.777 212V211.8H127.729V212V212.2H133.777V212ZM130.865 209.712V209.912H133.521V209.712V209.512H130.865V209.712ZM133.521 209.712V209.912C134.082 209.912 134.538 209.82 134.863 209.607L134.753 209.44L134.644 209.273C134.414 209.423 134.049 209.512 133.521 209.512V209.712ZM134.753 209.44L134.864 209.606C135.215 209.373 135.385 209.018 135.385 208.576H135.185H134.985C134.985 208.902 134.868 209.123 134.642 209.274L134.753 209.44ZM135.185 208.576H135.385C135.385 208.134 135.214 207.782 134.86 207.559L134.753 207.728L134.647 207.897C134.868 208.037 134.985 208.25 134.985 208.576H135.185ZM134.753 207.728L134.867 207.564C134.542 207.338 134.083 207.24 133.521 207.24V207.44V207.64C134.047 207.64 134.41 207.734 134.64 207.892L134.753 207.728ZM133.521 207.44V207.24H130.641V207.44V207.64H133.521V207.44ZM130.641 207.44H130.841V205.248H130.641H130.441V207.44H130.641ZM130.641 205.248V205.448H133.041V205.248V205.048H130.641V205.248ZM133.041 205.248V205.448C133.591 205.448 134.039 205.356 134.354 205.141L134.241 204.976L134.129 204.811C133.911 204.959 133.558 205.048 133.041 205.048V205.248ZM134.241 204.976L134.354 205.141C134.683 204.918 134.841 204.579 134.841 204.16H134.641H134.441C134.441 204.466 134.333 204.672 134.129 204.811L134.241 204.976ZM134.641 204.16H134.841C134.841 203.741 134.682 203.405 134.349 203.192L134.241 203.36L134.134 203.528C134.334 203.656 134.441 203.854 134.441 204.16H134.641ZM134.241 203.36L134.354 203.195C134.039 202.98 133.591 202.888 133.041 202.888V203.088V203.288C133.558 203.288 133.911 203.377 134.129 203.525L134.241 203.36ZM133.041 203.088V202.888H130.865V203.088V203.288H133.041V203.088ZM130.865 203.088H130.665V209.712H130.865H131.065V203.088H130.865ZM140.026 212H139.826V212.2H140.026V212ZM140.026 200.8V200.6H139.826V200.8H140.026ZM143.194 200.8H143.394V200.6H143.194V200.8ZM143.194 209.488H142.994V209.688H143.194V209.488ZM148.538 209.488H148.738V209.288H148.538V209.488ZM148.538 212V212.2H148.738V212H148.538ZM140.026 212H140.226V200.8H140.026H139.826V212H140.026ZM140.026 200.8V201H143.194V200.8V200.6H140.026V200.8ZM143.194 200.8H142.994V209.488H143.194H143.394V200.8H143.194ZM143.194 209.488V209.688H148.538V209.488V209.288H143.194V209.488ZM148.538 209.488H148.338V212H148.538H148.738V209.488H148.538ZM148.538 212V211.8H140.026V212V212.2H148.538V212ZM149.792 212H149.592V212.2H149.792V212ZM149.792 200.8V200.6H149.592V200.8H149.792ZM158.576 200.8H158.776V200.6H158.576V200.8ZM158.576 203.248V203.448H158.776V203.248H158.576ZM152.928 203.248V203.048H152.728V203.248H152.928ZM152.928 209.552H152.728V209.752H152.928V209.552ZM158.784 209.552H158.984V209.352H158.784V209.552ZM158.784 212V212.2H158.984V212H158.784ZM152.704 207.504H152.504V207.704H152.704V207.504ZM152.704 205.136V204.936H152.504V205.136H152.704ZM157.904 205.136H158.104V204.936H157.904V205.136ZM157.904 207.504V207.704H158.104V207.504H157.904ZM149.792 212H149.992V200.8H149.792H149.592V212H149.792ZM149.792 200.8V201H158.576V200.8V200.6H149.792V200.8ZM158.576 200.8H158.376V203.248H158.576H158.776V200.8H158.576ZM158.576 203.248V203.048H152.928V203.248V203.448H158.576V203.248ZM152.928 203.248H152.728V209.552H152.928H153.128V203.248H152.928ZM152.928 209.552V209.752H158.784V209.552V209.352H152.928V209.552ZM158.784 209.552H158.584V212H158.784H158.984V209.552H158.784ZM158.784 212V211.8H149.792V212V212.2H158.784V212ZM152.704 207.504H152.904V205.136H152.704H152.504V207.504H152.704ZM152.704 205.136V205.336H157.904V205.136V204.936H152.704V205.136ZM157.904 205.136H157.704V207.504H157.904H158.104V205.136H157.904ZM157.904 207.504V207.304H152.704V207.504V207.704H157.904V207.504Z" fill="black" mask="url(#path-3-outside-1_87_318)"/>
<path d="M36.5771 106.808L36.5703 106.768L33.5 88.2422V79.5H36.7256L38.6729 86.3564L38.6787 86.376L38.6855 86.3945L40.2139 90.4941L40.7148 92.5127L42.7568 104.832V110.443H72.5V142.5H68.3721V121.821H42.7568V129.337L41.8145 135.692L39.7666 142.5H35.4756L36.5732 133.422L36.5771 133.392V106.808Z" fill="#324154" stroke="#324154"/>
<path d="M139.478 105.5L141.5 127.619V142.5H137.157L133.172 133.588L129.05 118.222L128.991 118.004L128.789 117.903L124.656 115.85L124.551 115.797H97.4492L97.3438 115.85L93.2109 117.903L93.0156 118.001L92.9541 118.209L87.7939 135.643L84.8379 142.5H80.5V127.619L82.5225 105.5H139.478Z" fill="#324154" stroke="#324154"/>
<path d="M143.636 96.5L144.459 98.5L143.636 100.5H78.3643L77.54 98.5L78.3643 96.5H143.636Z" fill="#324154" stroke="#324154"/>
<path d="M185.423 106.808L185.43 106.768L188.5 88.2422V79.5H185.274L183.327 86.3564L183.321 86.376L183.314 86.3945L181.786 90.4941L181.285 92.5127L179.243 104.832V110.443H149.5V142.5H153.628V121.821H179.243V129.337L180.186 135.692L182.233 142.5H186.524L185.427 133.422L185.423 133.392V106.808Z" fill="#324154" stroke="#324154"/>
</svg>
