<svg width="64" height="29" viewBox="0 0 64 29" fill="none" xmlns="http://www.w3.org/2000/svg">
<rect y="26.2295" width="64" height="2.09836" fill="#324154"/>
<path d="M9.44263 24.6586C9.44263 -2.09683 52.4589 -3.14599 52.9835 24.6586" stroke="#324154"/>
<rect x="27.2787" width="8.39344" height="2.09836" fill="#324154"/>
<path d="M36.459 13.1148C36.3043 13.1148 36.1547 13.1342 36.0094 13.1657C35.9449 12.2104 35.1575 11.4534 34.186 11.4534C33.9683 11.4534 33.7621 11.498 33.5685 11.5677C32.9652 10.6088 31.9045 9.96722 30.6885 9.96722C28.8409 9.96722 27.3453 11.4397 27.2892 13.2737C27.0431 13.1725 26.7745 13.1148 26.4918 13.1148C25.333 13.1148 24.3934 14.0543 24.3934 15.2131C24.3934 16.342 25.2868 17.2559 26.4042 17.302L27.2456 16.4606L28.0965 17.3115H28.4942L29.3445 16.4606L30.1949 17.3115H30.5925L31.4429 16.4606L32.2932 17.3115H32.6909L33.5412 16.4606L34.3916 17.3115H34.7892L35.6396 16.4606L36.4873 17.3083C37.6325 17.2931 38.5574 16.3625 38.5574 15.2131C38.5574 14.0543 37.6178 13.1148 36.459 13.1148ZM35.6721 17.0838L34.9199 17.8361H34.2599L33.5407 17.1169L32.8215 17.8361H32.1616L31.4424 17.1169L30.7231 17.8361H30.0632L29.344 17.1169L28.6248 17.8361H27.9654L27.2462 17.1169L26.5264 17.8361H26.4918L27.882 23.6066H35.0295L36.459 17.8361H36.4244L35.6721 17.0838ZM29.1147 23.082L28.022 18.3607H28.5466L29.6393 23.082H29.1147ZM30.1639 23.082L29.6068 18.3607H30.1314L30.6885 23.082H30.1639ZM31.7377 23.082H31.2131V18.3607H31.7377V23.082ZM32.2623 23.082L32.8194 18.3607H33.344L32.7869 23.082H32.2623ZM33.8361 23.082H33.3115L34.3932 18.3607H34.9178L33.8361 23.082Z" fill="#324154"/>
</svg>
