<svg width="222" height="222" viewBox="0 0 222 222" fill="none" xmlns="http://www.w3.org/2000/svg">
<rect width="222" height="222" rx="15" fill="#F96161"/>
<path d="M0 190.92H222V207C222 215.284 215.284 222 207 222H15C6.71573 222 0 215.284 0 207V190.92Z" fill="#BE0404"/>
<mask id="path-3-outside-1_87_319" maskUnits="userSpaceOnUse" x="66" y="200" width="90" height="13" fill="black">
<rect fill="white" x="66" y="200" width="90" height="13"/>
<path d="M72.5571 212.224C71.6611 212.224 70.8344 212.08 70.0771 211.792C69.3197 211.504 68.6584 211.099 68.0931 210.576C67.5384 210.043 67.1064 209.424 66.7971 208.72C66.4877 208.016 66.3331 207.243 66.3331 206.4C66.3331 205.557 66.4877 204.784 66.7971 204.08C67.1064 203.376 67.5384 202.763 68.0931 202.24C68.6584 201.707 69.3197 201.296 70.0771 201.008C70.8344 200.72 71.6611 200.576 72.5571 200.576C73.4637 200.576 74.2904 200.72 75.0371 201.008C75.7944 201.296 76.4504 201.707 77.0051 202.24C77.5597 202.763 77.9917 203.376 78.3011 204.08C78.6211 204.784 78.7811 205.557 78.7811 206.4C78.7811 207.243 78.6211 208.021 78.3011 208.736C77.9917 209.44 77.5597 210.053 77.0051 210.576C76.4504 211.099 75.7944 211.504 75.0371 211.792C74.2904 212.08 73.4637 212.224 72.5571 212.224ZM72.5571 209.6C72.9837 209.6 73.3784 209.525 73.7411 209.376C74.1144 209.227 74.4344 209.013 74.7011 208.736C74.9784 208.448 75.1917 208.107 75.3411 207.712C75.5011 207.317 75.5811 206.88 75.5811 206.4C75.5811 205.909 75.5011 205.472 75.3411 205.088C75.1917 204.693 74.9784 204.357 74.7011 204.08C74.4344 203.792 74.1144 203.573 73.7411 203.424C73.3784 203.275 72.9837 203.2 72.5571 203.2C72.1304 203.2 71.7304 203.275 71.3571 203.424C70.9944 203.573 70.6744 203.792 70.3971 204.08C70.1304 204.357 69.9171 204.693 69.7571 205.088C69.6077 205.472 69.5331 205.909 69.5331 206.4C69.5331 206.88 69.6077 207.317 69.7571 207.712C69.9171 208.107 70.1304 208.448 70.3971 208.736C70.6744 209.013 70.9944 209.227 71.3571 209.376C71.7304 209.525 72.1304 209.6 72.5571 209.6ZM86.0243 212.224C85.139 212.224 84.3176 212.085 83.5603 211.808C82.8136 211.52 82.163 211.115 81.6083 210.592C81.0643 210.069 80.6376 209.456 80.3283 208.752C80.019 208.037 79.8643 207.253 79.8643 206.4C79.8643 205.547 80.019 204.768 80.3283 204.064C80.6376 203.349 81.0643 202.731 81.6083 202.208C82.163 201.685 82.8136 201.285 83.5603 201.008C84.3176 200.72 85.139 200.576 86.0243 200.576C87.059 200.576 87.9816 200.757 88.7923 201.12C89.6136 201.483 90.2963 202.005 90.8403 202.688L88.8243 204.512C88.4616 204.085 88.0616 203.76 87.6243 203.536C87.1976 203.312 86.7176 203.2 86.1843 203.2C85.7256 203.2 85.3043 203.275 84.9203 203.424C84.5363 203.573 84.2056 203.792 83.9283 204.08C83.6616 204.357 83.4483 204.693 83.2883 205.088C83.139 205.483 83.0643 205.92 83.0643 206.4C83.0643 206.88 83.139 207.317 83.2883 207.712C83.4483 208.107 83.6616 208.448 83.9283 208.736C84.2056 209.013 84.5363 209.227 84.9203 209.376C85.3043 209.525 85.7256 209.6 86.1843 209.6C86.7176 209.6 87.1976 209.488 87.6243 209.264C88.0616 209.04 88.4616 208.715 88.8243 208.288L90.8403 210.112C90.2963 210.784 89.6136 211.307 88.7923 211.68C87.9816 212.043 87.059 212.224 86.0243 212.224ZM97.6024 212.224C96.7171 212.224 95.8958 212.085 95.1384 211.808C94.3918 211.52 93.7411 211.115 93.1864 210.592C92.6424 210.069 92.2158 209.456 91.9064 208.752C91.5971 208.037 91.4424 207.253 91.4424 206.4C91.4424 205.547 91.5971 204.768 91.9064 204.064C92.2158 203.349 92.6424 202.731 93.1864 202.208C93.7411 201.685 94.3918 201.285 95.1384 201.008C95.8958 200.72 96.7171 200.576 97.6024 200.576C98.6371 200.576 99.5598 200.757 100.37 201.12C101.192 201.483 101.874 202.005 102.418 202.688L100.402 204.512C100.04 204.085 99.6398 203.76 99.2024 203.536C98.7758 203.312 98.2958 203.2 97.7624 203.2C97.3038 203.2 96.8824 203.275 96.4984 203.424C96.1144 203.573 95.7838 203.792 95.5064 204.08C95.2398 204.357 95.0264 204.693 94.8664 205.088C94.7171 205.483 94.6424 205.92 94.6424 206.4C94.6424 206.88 94.7171 207.317 94.8664 207.712C95.0264 208.107 95.2398 208.448 95.5064 208.736C95.7838 209.013 96.1144 209.227 96.4984 209.376C96.8824 209.525 97.3038 209.6 97.7624 209.6C98.2958 209.6 98.7758 209.488 99.2024 209.264C99.6398 209.04 100.04 208.715 100.402 208.288L102.418 210.112C101.874 210.784 101.192 211.307 100.37 211.68C99.5598 212.043 98.6371 212.224 97.6024 212.224ZM108.89 212.224C107.236 212.224 105.946 211.771 105.018 210.864C104.09 209.957 103.626 208.672 103.626 207.008V200.8H106.794V206.912C106.794 207.872 106.98 208.56 107.354 208.976C107.738 209.392 108.26 209.6 108.922 209.6C109.583 209.6 110.1 209.392 110.474 208.976C110.847 208.56 111.034 207.872 111.034 206.912V200.8H114.154V207.008C114.154 208.672 113.69 209.957 112.762 210.864C111.834 211.771 110.543 212.224 108.89 212.224ZM116.3 212V200.8H121.42C122.444 200.8 123.324 200.965 124.06 201.296C124.806 201.627 125.382 202.107 125.788 202.736C126.193 203.355 126.396 204.091 126.396 204.944C126.396 205.787 126.193 206.517 125.788 207.136C125.382 207.755 124.806 208.235 124.06 208.576C123.324 208.907 122.444 209.072 121.42 209.072H118.06L119.468 207.696V212H116.3ZM119.468 208.032L118.06 206.576H121.228C121.889 206.576 122.38 206.432 122.7 206.144C123.03 205.856 123.196 205.456 123.196 204.944C123.196 204.421 123.03 204.016 122.7 203.728C122.38 203.44 121.889 203.296 121.228 203.296H118.06L119.468 201.84V208.032ZM127.94 212V200.8H131.108V212H127.94ZM136.274 205.136H141.474V207.504H136.274V205.136ZM136.498 209.552H142.354V212H133.362V200.8H142.146V203.248H136.498V209.552ZM144.112 212V200.8H149.408C150.646 200.8 151.734 201.029 152.672 201.488C153.611 201.947 154.342 202.592 154.864 203.424C155.398 204.256 155.664 205.248 155.664 206.4C155.664 207.541 155.398 208.533 154.864 209.376C154.342 210.208 153.611 210.853 152.672 211.312C151.734 211.771 150.646 212 149.408 212H144.112ZM147.28 209.472H149.28C149.92 209.472 150.475 209.355 150.944 209.12C151.424 208.875 151.798 208.523 152.064 208.064C152.331 207.595 152.464 207.04 152.464 206.4C152.464 205.749 152.331 205.195 152.064 204.736C151.798 204.277 151.424 203.931 150.944 203.696C150.475 203.451 149.92 203.328 149.28 203.328H147.28V209.472Z"/>
</mask>
<path d="M72.5571 212.224C71.6611 212.224 70.8344 212.08 70.0771 211.792C69.3197 211.504 68.6584 211.099 68.0931 210.576C67.5384 210.043 67.1064 209.424 66.7971 208.72C66.4877 208.016 66.3331 207.243 66.3331 206.4C66.3331 205.557 66.4877 204.784 66.7971 204.08C67.1064 203.376 67.5384 202.763 68.0931 202.24C68.6584 201.707 69.3197 201.296 70.0771 201.008C70.8344 200.72 71.6611 200.576 72.5571 200.576C73.4637 200.576 74.2904 200.72 75.0371 201.008C75.7944 201.296 76.4504 201.707 77.0051 202.24C77.5597 202.763 77.9917 203.376 78.3011 204.08C78.6211 204.784 78.7811 205.557 78.7811 206.4C78.7811 207.243 78.6211 208.021 78.3011 208.736C77.9917 209.44 77.5597 210.053 77.0051 210.576C76.4504 211.099 75.7944 211.504 75.0371 211.792C74.2904 212.08 73.4637 212.224 72.5571 212.224ZM72.5571 209.6C72.9837 209.6 73.3784 209.525 73.7411 209.376C74.1144 209.227 74.4344 209.013 74.7011 208.736C74.9784 208.448 75.1917 208.107 75.3411 207.712C75.5011 207.317 75.5811 206.88 75.5811 206.4C75.5811 205.909 75.5011 205.472 75.3411 205.088C75.1917 204.693 74.9784 204.357 74.7011 204.08C74.4344 203.792 74.1144 203.573 73.7411 203.424C73.3784 203.275 72.9837 203.2 72.5571 203.2C72.1304 203.2 71.7304 203.275 71.3571 203.424C70.9944 203.573 70.6744 203.792 70.3971 204.08C70.1304 204.357 69.9171 204.693 69.7571 205.088C69.6077 205.472 69.5331 205.909 69.5331 206.4C69.5331 206.88 69.6077 207.317 69.7571 207.712C69.9171 208.107 70.1304 208.448 70.3971 208.736C70.6744 209.013 70.9944 209.227 71.3571 209.376C71.7304 209.525 72.1304 209.6 72.5571 209.6ZM86.0243 212.224C85.139 212.224 84.3176 212.085 83.5603 211.808C82.8136 211.52 82.163 211.115 81.6083 210.592C81.0643 210.069 80.6376 209.456 80.3283 208.752C80.019 208.037 79.8643 207.253 79.8643 206.4C79.8643 205.547 80.019 204.768 80.3283 204.064C80.6376 203.349 81.0643 202.731 81.6083 202.208C82.163 201.685 82.8136 201.285 83.5603 201.008C84.3176 200.72 85.139 200.576 86.0243 200.576C87.059 200.576 87.9816 200.757 88.7923 201.12C89.6136 201.483 90.2963 202.005 90.8403 202.688L88.8243 204.512C88.4616 204.085 88.0616 203.76 87.6243 203.536C87.1976 203.312 86.7176 203.2 86.1843 203.2C85.7256 203.2 85.3043 203.275 84.9203 203.424C84.5363 203.573 84.2056 203.792 83.9283 204.08C83.6616 204.357 83.4483 204.693 83.2883 205.088C83.139 205.483 83.0643 205.92 83.0643 206.4C83.0643 206.88 83.139 207.317 83.2883 207.712C83.4483 208.107 83.6616 208.448 83.9283 208.736C84.2056 209.013 84.5363 209.227 84.9203 209.376C85.3043 209.525 85.7256 209.6 86.1843 209.6C86.7176 209.6 87.1976 209.488 87.6243 209.264C88.0616 209.04 88.4616 208.715 88.8243 208.288L90.8403 210.112C90.2963 210.784 89.6136 211.307 88.7923 211.68C87.9816 212.043 87.059 212.224 86.0243 212.224ZM97.6024 212.224C96.7171 212.224 95.8958 212.085 95.1384 211.808C94.3918 211.52 93.7411 211.115 93.1864 210.592C92.6424 210.069 92.2158 209.456 91.9064 208.752C91.5971 208.037 91.4424 207.253 91.4424 206.4C91.4424 205.547 91.5971 204.768 91.9064 204.064C92.2158 203.349 92.6424 202.731 93.1864 202.208C93.7411 201.685 94.3918 201.285 95.1384 201.008C95.8958 200.72 96.7171 200.576 97.6024 200.576C98.6371 200.576 99.5598 200.757 100.37 201.12C101.192 201.483 101.874 202.005 102.418 202.688L100.402 204.512C100.04 204.085 99.6398 203.76 99.2024 203.536C98.7758 203.312 98.2958 203.2 97.7624 203.2C97.3038 203.2 96.8824 203.275 96.4984 203.424C96.1144 203.573 95.7838 203.792 95.5064 204.08C95.2398 204.357 95.0264 204.693 94.8664 205.088C94.7171 205.483 94.6424 205.92 94.6424 206.4C94.6424 206.88 94.7171 207.317 94.8664 207.712C95.0264 208.107 95.2398 208.448 95.5064 208.736C95.7838 209.013 96.1144 209.227 96.4984 209.376C96.8824 209.525 97.3038 209.6 97.7624 209.6C98.2958 209.6 98.7758 209.488 99.2024 209.264C99.6398 209.04 100.04 208.715 100.402 208.288L102.418 210.112C101.874 210.784 101.192 211.307 100.37 211.68C99.5598 212.043 98.6371 212.224 97.6024 212.224ZM108.89 212.224C107.236 212.224 105.946 211.771 105.018 210.864C104.09 209.957 103.626 208.672 103.626 207.008V200.8H106.794V206.912C106.794 207.872 106.98 208.56 107.354 208.976C107.738 209.392 108.26 209.6 108.922 209.6C109.583 209.6 110.1 209.392 110.474 208.976C110.847 208.56 111.034 207.872 111.034 206.912V200.8H114.154V207.008C114.154 208.672 113.69 209.957 112.762 210.864C111.834 211.771 110.543 212.224 108.89 212.224ZM116.3 212V200.8H121.42C122.444 200.8 123.324 200.965 124.06 201.296C124.806 201.627 125.382 202.107 125.788 202.736C126.193 203.355 126.396 204.091 126.396 204.944C126.396 205.787 126.193 206.517 125.788 207.136C125.382 207.755 124.806 208.235 124.06 208.576C123.324 208.907 122.444 209.072 121.42 209.072H118.06L119.468 207.696V212H116.3ZM119.468 208.032L118.06 206.576H121.228C121.889 206.576 122.38 206.432 122.7 206.144C123.03 205.856 123.196 205.456 123.196 204.944C123.196 204.421 123.03 204.016 122.7 203.728C122.38 203.44 121.889 203.296 121.228 203.296H118.06L119.468 201.84V208.032ZM127.94 212V200.8H131.108V212H127.94ZM136.274 205.136H141.474V207.504H136.274V205.136ZM136.498 209.552H142.354V212H133.362V200.8H142.146V203.248H136.498V209.552ZM144.112 212V200.8H149.408C150.646 200.8 151.734 201.029 152.672 201.488C153.611 201.947 154.342 202.592 154.864 203.424C155.398 204.256 155.664 205.248 155.664 206.4C155.664 207.541 155.398 208.533 154.864 209.376C154.342 210.208 153.611 210.853 152.672 211.312C151.734 211.771 150.646 212 149.408 212H144.112ZM147.28 209.472H149.28C149.92 209.472 150.475 209.355 150.944 209.12C151.424 208.875 151.798 208.523 152.064 208.064C152.331 207.595 152.464 207.04 152.464 206.4C152.464 205.749 152.331 205.195 152.064 204.736C151.798 204.277 151.424 203.931 150.944 203.696C150.475 203.451 149.92 203.328 149.28 203.328H147.28V209.472Z" fill="white"/>
<path d="M70.0771 211.792L70.006 211.979L70.006 211.979L70.0771 211.792ZM68.0931 210.576L67.9544 210.72L67.9573 210.723L68.0931 210.576ZM66.7971 208.72L66.614 208.8L66.614 208.8L66.7971 208.72ZM66.7971 204.08L66.614 204L66.614 204L66.7971 204.08ZM68.0931 202.24L68.2302 202.386L68.2303 202.385L68.0931 202.24ZM70.0771 201.008L70.006 200.821L70.006 200.821L70.0771 201.008ZM75.0371 201.008L74.9651 201.195L74.966 201.195L75.0371 201.008ZM77.0051 202.24L76.8664 202.384L76.8679 202.386L77.0051 202.24ZM78.3011 204.08L78.1179 204.16L78.119 204.163L78.3011 204.08ZM78.3011 208.736L78.1185 208.654L78.118 208.656L78.3011 208.736ZM77.0051 210.576L77.1422 210.722L77.1422 210.722L77.0051 210.576ZM75.0371 211.792L74.966 211.605L74.9651 211.605L75.0371 211.792ZM73.7411 209.376L73.6668 209.19L73.6649 209.191L73.7411 209.376ZM74.7011 208.736L74.557 208.597L74.5569 208.597L74.7011 208.736ZM75.3411 207.712L75.1557 207.637L75.154 207.641L75.3411 207.712ZM75.3411 205.088L75.1539 205.159L75.1564 205.165L75.3411 205.088ZM74.7011 204.08L74.5542 204.216L74.5596 204.221L74.7011 204.08ZM73.7411 203.424L73.6649 203.609L73.6668 203.61L73.7411 203.424ZM71.3571 203.424L71.2828 203.238L71.2809 203.239L71.3571 203.424ZM70.3971 204.08L70.253 203.941L70.2529 203.941L70.3971 204.08ZM69.7571 205.088L69.5717 205.013L69.5707 205.016L69.7571 205.088ZM69.7571 207.712L69.57 207.783L69.5717 207.787L69.7571 207.712ZM70.3971 208.736L70.2502 208.872L70.2556 208.877L70.3971 208.736ZM71.3571 209.376L71.2809 209.561L71.2828 209.562L71.3571 209.376ZM72.5571 212.224V212.024C71.6828 212.024 70.8805 211.884 70.1482 211.605L70.0771 211.792L70.006 211.979C70.7883 212.276 71.6393 212.424 72.5571 212.424V212.224ZM70.0771 211.792L70.1482 211.605C69.4135 211.326 68.7744 210.934 68.2288 210.429L68.0931 210.576L67.9573 210.723C68.5424 211.264 69.226 211.682 70.006 211.979L70.0771 211.792ZM68.0931 210.576L68.2317 210.432C67.6959 209.917 67.279 209.32 66.9802 208.64L66.7971 208.72L66.614 208.8C66.9338 209.528 67.3809 210.169 67.9544 210.72L68.0931 210.576ZM66.7971 208.72L66.9802 208.64C66.683 207.963 66.5331 207.218 66.5331 206.4H66.3331H66.1331C66.1331 207.268 66.2925 208.069 66.614 208.8L66.7971 208.72ZM66.3331 206.4H66.5331C66.5331 205.582 66.683 204.837 66.9802 204.16L66.7971 204.08L66.614 204C66.2925 204.731 66.1331 205.532 66.1331 206.4H66.3331ZM66.7971 204.08L66.9802 204.16C67.2788 203.481 67.6953 202.89 68.2302 202.386L68.0931 202.24L67.9559 202.094C67.3815 202.636 66.934 203.271 66.614 204L66.7971 204.08ZM68.0931 202.24L68.2303 202.385C68.7757 201.871 69.4143 201.474 70.1482 201.195L70.0771 201.008L70.006 200.821C69.2251 201.118 68.5411 201.542 67.9558 202.095L68.0931 202.24ZM70.0771 201.008L70.1482 201.195C70.8805 200.916 71.6828 200.776 72.5571 200.776V200.576V200.376C71.6393 200.376 70.7883 200.524 70.006 200.821L70.0771 201.008ZM72.5571 200.576V200.776C73.4424 200.776 74.2442 200.917 74.9651 201.195L75.0371 201.008L75.109 200.821C74.3366 200.523 73.4851 200.376 72.5571 200.376V200.576ZM75.0371 201.008L74.966 201.195C75.6995 201.474 76.3322 201.87 76.8664 202.384L77.0051 202.24L77.1437 202.096C76.5686 201.543 75.8893 201.118 75.1082 200.821L75.0371 201.008ZM77.0051 202.24L76.8679 202.386C77.4029 202.89 77.8193 203.481 78.118 204.16L78.3011 204.08L78.4842 204C78.1641 203.271 77.7166 202.636 77.1422 202.094L77.0051 202.24ZM78.3011 204.08L78.119 204.163C78.4261 204.839 78.5811 205.583 78.5811 206.4H78.7811H78.9811C78.9811 205.531 78.816 204.729 78.4831 203.997L78.3011 204.08ZM78.7811 206.4H78.5811C78.5811 207.217 78.4262 207.967 78.1185 208.654L78.3011 208.736L78.4836 208.818C78.816 208.075 78.9811 207.269 78.9811 206.4H78.7811ZM78.3011 208.736L78.118 208.656C77.8193 209.335 77.4029 209.926 76.8679 210.43L77.0051 210.576L77.1422 210.722C77.7166 210.18 78.1641 209.545 78.4842 208.816L78.3011 208.736ZM77.0051 210.576L76.8679 210.43C76.3335 210.934 75.7004 211.326 74.966 211.605L75.0371 211.792L75.1082 211.979C75.8884 211.682 76.5673 211.263 77.1422 210.722L77.0051 210.576ZM75.0371 211.792L74.9651 211.605C74.2442 211.883 73.4424 212.024 72.5571 212.024V212.224V212.424C73.4851 212.424 74.3366 212.277 75.109 211.979L75.0371 211.792ZM72.5571 209.6V209.8C73.0075 209.8 73.4283 209.721 73.8172 209.561L73.7411 209.376L73.6649 209.191C73.3285 209.33 72.9599 209.4 72.5571 209.4V209.6ZM73.7411 209.376L73.8153 209.562C74.2138 209.402 74.558 209.173 74.8452 208.875L74.7011 208.736L74.5569 208.597C74.3108 208.853 74.015 209.051 73.6668 209.19L73.7411 209.376ZM74.7011 208.736L74.8451 208.875C75.1423 208.566 75.3697 208.201 75.5281 207.783L75.3411 207.712L75.154 207.641C75.0137 208.012 74.8145 208.33 74.557 208.597L74.7011 208.736ZM75.3411 207.712L75.5264 207.787C75.6972 207.366 75.7811 206.902 75.7811 206.4H75.5811H75.3811C75.3811 206.858 75.3049 207.269 75.1557 207.637L75.3411 207.712ZM75.5811 206.4H75.7811C75.7811 205.888 75.6975 205.423 75.5257 205.011L75.3411 205.088L75.1564 205.165C75.3046 205.521 75.3811 205.931 75.3811 206.4H75.5811ZM75.3411 205.088L75.5281 205.017C75.3695 204.598 75.1414 204.237 74.8425 203.939L74.7011 204.08L74.5596 204.221C74.8154 204.477 75.0139 204.789 75.154 205.159L75.3411 205.088ZM74.7011 204.08L74.8478 203.944C74.5605 203.634 74.2155 203.398 73.8153 203.238L73.7411 203.424L73.6668 203.61C74.0133 203.748 74.3083 203.95 74.5543 204.216L74.7011 204.08ZM73.7411 203.424L73.8172 203.239C73.4283 203.079 73.0075 203 72.5571 203V203.2V203.4C72.9599 203.4 73.3285 203.47 73.6649 203.609L73.7411 203.424ZM72.5571 203.2V203C72.1065 203 71.6812 203.079 71.2828 203.238L71.3571 203.424L71.4313 203.61C71.7796 203.47 72.1543 203.4 72.5571 203.4V203.2ZM71.3571 203.424L71.2809 203.239C70.8921 203.399 70.5491 203.634 70.253 203.941L70.3971 204.08L70.5411 204.219C70.7996 203.95 71.0966 203.748 71.4332 203.609L71.3571 203.424ZM70.3971 204.08L70.2529 203.941C69.9668 204.239 69.7403 204.597 69.5717 205.013L69.7571 205.088L69.9424 205.163C70.0939 204.79 70.294 204.476 70.5412 204.219L70.3971 204.08ZM69.7571 205.088L69.5707 205.016C69.4108 205.427 69.3331 205.889 69.3331 206.4H69.5331H69.7331C69.7331 205.93 69.8047 205.517 69.9435 205.16L69.7571 205.088ZM69.5331 206.4H69.3331C69.3331 206.901 69.411 207.363 69.57 207.783L69.7571 207.712L69.9441 207.641C69.8044 207.272 69.7331 206.859 69.7331 206.4H69.5331ZM69.7571 207.712L69.5717 207.787C69.74 208.202 69.9659 208.565 70.2503 208.872L70.3971 208.736L70.5438 208.6C70.2949 208.331 70.0941 208.011 69.9424 207.637L69.7571 207.712ZM70.3971 208.736L70.2556 208.877C70.5516 209.173 70.8938 209.402 71.2809 209.561L71.3571 209.376L71.4332 209.191C71.095 209.052 70.7971 208.853 70.5385 208.595L70.3971 208.736ZM71.3571 209.376L71.2828 209.562C71.6812 209.721 72.1065 209.8 72.5571 209.8V209.6V209.4C72.1543 209.4 71.7796 209.33 71.4313 209.19L71.3571 209.376ZM83.5603 211.808L83.4883 211.995L83.4915 211.996L83.5603 211.808ZM81.6083 210.592L81.4697 210.736L81.4712 210.738L81.6083 210.592ZM80.3283 208.752L80.1448 208.831L80.1452 208.832L80.3283 208.752ZM80.3283 204.064L80.5114 204.144L80.5119 204.143L80.3283 204.064ZM81.6083 202.208L81.4711 202.062L81.4697 202.064L81.6083 202.208ZM83.5603 201.008L83.63 201.195L83.6314 201.195L83.5603 201.008ZM88.7923 201.12L88.7106 201.303L88.7115 201.303L88.7923 201.12ZM90.8403 202.688L90.9745 202.836L91.1138 202.71L90.9967 202.563L90.8403 202.688ZM88.8243 204.512L88.6719 204.642L88.8055 204.799L88.9585 204.66L88.8243 204.512ZM87.6243 203.536L87.5313 203.713L87.5331 203.714L87.6243 203.536ZM84.9203 203.424L84.9928 203.61L84.9928 203.61L84.9203 203.424ZM83.9283 204.08L83.7842 203.941L83.7841 203.941L83.9283 204.08ZM83.2883 205.088L83.1029 205.013L83.1013 205.017L83.2883 205.088ZM83.2883 207.712L83.1012 207.783L83.103 207.787L83.2883 207.712ZM83.9283 208.736L83.7815 208.872L83.7869 208.877L83.9283 208.736ZM84.9203 209.376L84.9928 209.19L84.9928 209.19L84.9203 209.376ZM87.6243 209.264L87.5331 209.086L87.5313 209.087L87.6243 209.264ZM88.8243 208.288L88.9585 208.14L88.8055 208.001L88.6719 208.158L88.8243 208.288ZM90.8403 210.112L90.9958 210.238L91.1149 210.091L90.9745 209.964L90.8403 210.112ZM88.7923 211.68L88.874 211.863L88.8751 211.862L88.7923 211.68ZM86.0243 212.224V212.024C85.1602 212.024 84.3623 211.889 83.6291 211.62L83.5603 211.808L83.4915 211.996C84.273 212.282 85.1178 212.424 86.0243 212.424V212.224ZM83.5603 211.808L83.6323 211.621C82.9086 211.342 82.2803 210.95 81.7455 210.446L81.6083 210.592L81.4712 210.738C82.0456 211.279 82.7187 211.698 83.4883 211.995L83.5603 211.808ZM81.6083 210.592L81.7469 210.448C81.2221 209.944 80.8104 209.352 80.5114 208.672L80.3283 208.752L80.1452 208.832C80.4649 209.56 80.9065 210.195 81.4697 210.736L81.6083 210.592ZM80.3283 208.752L80.5119 208.673C80.2144 207.985 80.0643 207.229 80.0643 206.4H79.8643H79.6643C79.6643 207.278 79.8236 208.089 80.1448 208.831L80.3283 208.752ZM79.8643 206.4H80.0643C80.0643 205.571 80.2144 204.82 80.5114 204.144L80.3283 204.064L80.1452 203.984C79.8236 204.716 79.6643 205.522 79.6643 206.4H79.8643ZM80.3283 204.064L80.5119 204.143C80.811 203.452 81.2226 202.856 81.7469 202.352L81.6083 202.208L81.4697 202.064C80.906 202.605 80.4643 203.246 80.1448 203.985L80.3283 204.064ZM81.6083 202.208L81.7455 202.354C82.2798 201.85 82.9072 201.464 83.63 201.195L83.5603 201.008L83.4907 200.821C82.7201 201.107 82.0462 201.521 81.4712 202.062L81.6083 202.208ZM83.5603 201.008L83.6314 201.195C84.364 200.916 85.161 200.776 86.0243 200.776V200.576V200.376C85.1169 200.376 84.2713 200.524 83.4892 200.821L83.5603 201.008ZM86.0243 200.576V200.776C87.0354 200.776 87.9296 200.953 88.7106 201.303L88.7923 201.12L88.874 200.937C88.0337 200.562 87.0825 200.376 86.0243 200.376V200.576ZM88.7923 201.12L88.7115 201.303C89.5042 201.653 90.1606 202.156 90.6839 202.813L90.8403 202.688L90.9967 202.563C90.432 201.855 89.7231 201.312 88.8731 200.937L88.7923 201.12ZM90.8403 202.688L90.7061 202.54L88.6901 204.364L88.8243 204.512L88.9585 204.66L90.9745 202.836L90.8403 202.688ZM88.8243 204.512L88.9767 204.382C88.5994 203.939 88.1793 203.596 87.7155 203.358L87.6243 203.536L87.5331 203.714C87.944 203.924 88.3239 204.232 88.6719 204.642L88.8243 204.512ZM87.6243 203.536L87.7173 203.359C87.259 203.118 86.7465 203 86.1843 203V203.2V203.4C86.6888 203.4 87.1363 203.506 87.5313 203.713L87.6243 203.536ZM86.1843 203.2V203C85.7036 203 85.2574 203.078 84.8478 203.238L84.9203 203.424L84.9928 203.61C85.3512 203.471 85.7476 203.4 86.1843 203.4V203.2ZM84.9203 203.424L84.8478 203.238C84.4376 203.397 84.0823 203.632 83.7842 203.941L83.9283 204.08L84.0724 204.219C84.329 203.952 84.635 203.75 84.9928 203.61L84.9203 203.424ZM83.9283 204.08L83.7841 203.941C83.498 204.239 83.2715 204.597 83.103 205.013L83.2883 205.088L83.4737 205.163C83.6251 204.79 83.8252 204.476 84.0725 204.219L83.9283 204.08ZM83.2883 205.088L83.1013 205.017C82.9423 205.437 82.8643 205.899 82.8643 206.4H83.0643H83.2643C83.2643 205.941 83.3357 205.528 83.4754 205.159L83.2883 205.088ZM83.0643 206.4H82.8643C82.8643 206.901 82.9423 207.363 83.1013 207.783L83.2883 207.712L83.4754 207.641C83.3357 207.272 83.2643 206.859 83.2643 206.4H83.0643ZM83.2883 207.712L83.103 207.787C83.2713 208.202 83.4971 208.565 83.7816 208.872L83.9283 208.736L84.0751 208.6C83.8262 208.331 83.6253 208.011 83.4737 207.637L83.2883 207.712ZM83.9283 208.736L83.7869 208.877C84.0848 209.175 84.4393 209.404 84.8478 209.562L84.9203 209.376L84.9928 209.19C84.6333 209.05 84.3265 208.851 84.0697 208.595L83.9283 208.736ZM84.9203 209.376L84.8478 209.562C85.2574 209.722 85.7036 209.8 86.1843 209.8V209.6V209.4C85.7476 209.4 85.3512 209.329 84.9928 209.19L84.9203 209.376ZM86.1843 209.6V209.8C86.7465 209.8 87.259 209.682 87.7173 209.441L87.6243 209.264L87.5313 209.087C87.1363 209.294 86.6888 209.4 86.1843 209.4V209.6ZM87.6243 209.264L87.7155 209.442C88.1793 209.204 88.5994 208.861 88.9767 208.418L88.8243 208.288L88.6719 208.158C88.3239 208.568 87.944 208.876 87.5331 209.086L87.6243 209.264ZM88.8243 208.288L88.6901 208.436L90.7061 210.26L90.8403 210.112L90.9745 209.964L88.9585 208.14L88.8243 208.288ZM90.8403 210.112L90.6849 209.986C90.1613 210.633 89.5039 211.137 88.7096 211.498L88.7923 211.68L88.8751 211.862C89.7234 211.476 90.4314 210.935 90.9958 210.238L90.8403 210.112ZM88.7923 211.68L88.7106 211.497C87.9296 211.847 87.0354 212.024 86.0243 212.024V212.224V212.424C87.0825 212.424 88.0337 212.238 88.874 211.863L88.7923 211.68ZM95.1384 211.808L95.0665 211.995L95.0697 211.996L95.1384 211.808ZM93.1864 210.592L93.0479 210.736L93.0493 210.738L93.1864 210.592ZM91.9064 208.752L91.7229 208.831L91.7233 208.832L91.9064 208.752ZM91.9064 204.064L92.0895 204.144L92.09 204.143L91.9064 204.064ZM93.1864 202.208L93.0493 202.062L93.0479 202.064L93.1864 202.208ZM95.1384 201.008L95.2081 201.195L95.2095 201.195L95.1384 201.008ZM100.37 201.12L100.289 201.303L100.29 201.303L100.37 201.12ZM102.418 202.688L102.553 202.836L102.692 202.71L102.575 202.563L102.418 202.688ZM100.402 204.512L100.25 204.642L100.384 204.799L100.537 204.66L100.402 204.512ZM99.2024 203.536L99.1095 203.713L99.1113 203.714L99.2024 203.536ZM96.4984 203.424L96.5709 203.61L96.5709 203.61L96.4984 203.424ZM95.5064 204.08L95.3624 203.941L95.3623 203.941L95.5064 204.08ZM94.8664 205.088L94.681 205.013L94.6794 205.017L94.8664 205.088ZM94.8664 207.712L94.6793 207.783L94.6811 207.787L94.8664 207.712ZM95.5064 208.736L95.3596 208.872L95.365 208.877L95.5064 208.736ZM96.4984 209.376L96.5709 209.19L96.5709 209.19L96.4984 209.376ZM99.2024 209.264L99.1113 209.086L99.1095 209.087L99.2024 209.264ZM100.402 208.288L100.537 208.14L100.384 208.001L100.25 208.158L100.402 208.288ZM102.418 210.112L102.574 210.238L102.693 210.091L102.553 209.964L102.418 210.112ZM100.37 211.68L100.452 211.863L100.453 211.862L100.37 211.68ZM97.6024 212.224V212.024C96.7383 212.024 95.9405 211.889 95.2072 211.62L95.1384 211.808L95.0697 211.996C95.8511 212.282 96.6959 212.424 97.6024 212.424V212.224ZM95.1384 211.808L95.2104 211.621C94.4867 211.342 93.8585 210.95 93.3236 210.446L93.1864 210.592L93.0493 210.738C93.6237 211.279 94.2968 211.698 95.0665 211.995L95.1384 211.808ZM93.1864 210.592L93.325 210.448C92.8002 209.944 92.3886 209.352 92.0895 208.672L91.9064 208.752L91.7233 208.832C92.043 209.56 92.4846 210.195 93.0479 210.736L93.1864 210.592ZM91.9064 208.752L92.09 208.673C91.7925 207.985 91.6424 207.229 91.6424 206.4H91.4424H91.2424C91.2424 207.278 91.4017 208.089 91.7229 208.831L91.9064 208.752ZM91.4424 206.4H91.6424C91.6424 205.571 91.7925 204.82 92.0895 204.144L91.9064 204.064L91.7233 203.984C91.4017 204.716 91.2424 205.522 91.2424 206.4H91.4424ZM91.9064 204.064L92.09 204.143C92.3891 203.452 92.8008 202.856 93.325 202.352L93.1864 202.208L93.0479 202.064C92.4841 202.605 92.0424 203.246 91.7229 203.985L91.9064 204.064ZM93.1864 202.208L93.3236 202.354C93.8579 201.85 94.4853 201.464 95.2081 201.195L95.1384 201.008L95.0688 200.821C94.2982 201.107 93.6243 201.521 93.0493 202.062L93.1864 202.208ZM95.1384 201.008L95.2095 201.195C95.9421 200.916 96.7391 200.776 97.6024 200.776V200.576V200.376C96.6951 200.376 95.8494 200.524 95.0673 200.821L95.1384 201.008ZM97.6024 200.576V200.776C98.6136 200.776 99.5077 200.953 100.289 201.303L100.37 201.12L100.452 200.937C99.6119 200.562 98.6606 200.376 97.6024 200.376V200.576ZM100.37 201.12L100.29 201.303C101.082 201.653 101.739 202.156 102.262 202.813L102.418 202.688L102.575 202.563C102.01 201.855 101.301 201.312 100.451 200.937L100.37 201.12ZM102.418 202.688L102.284 202.54L100.268 204.364L100.402 204.512L100.537 204.66L102.553 202.836L102.418 202.688ZM100.402 204.512L100.555 204.382C100.177 203.939 99.7574 203.596 99.2936 203.358L99.2024 203.536L99.1113 203.714C99.5222 203.924 99.902 204.232 100.25 204.642L100.402 204.512ZM99.2024 203.536L99.2954 203.359C98.8371 203.118 98.3246 203 97.7624 203V203.2V203.4C98.2669 203.4 98.7144 203.506 99.1095 203.713L99.2024 203.536ZM97.7624 203.2V203C97.2818 203 96.8355 203.078 96.4259 203.238L96.4984 203.424L96.5709 203.61C96.9293 203.471 97.3258 203.4 97.7624 203.4V203.2ZM96.4984 203.424L96.4259 203.238C96.0158 203.397 95.6604 203.632 95.3624 203.941L95.5064 204.08L95.6505 204.219C95.9071 203.952 96.2131 203.75 96.5709 203.61L96.4984 203.424ZM95.5064 204.08L95.3623 203.941C95.0762 204.239 94.8496 204.597 94.6811 205.013L94.8664 205.088L95.0518 205.163C95.2032 204.79 95.4034 204.476 95.6506 204.219L95.5064 204.08ZM94.8664 205.088L94.6794 205.017C94.5204 205.437 94.4424 205.899 94.4424 206.4H94.6424H94.8424C94.8424 205.941 94.9138 205.528 95.0535 205.159L94.8664 205.088ZM94.6424 206.4H94.4424C94.4424 206.901 94.5204 207.363 94.6794 207.783L94.8664 207.712L95.0535 207.641C94.9138 207.272 94.8424 206.859 94.8424 206.4H94.6424ZM94.8664 207.712L94.6811 207.787C94.8494 208.202 95.0752 208.565 95.3597 208.872L95.5064 208.736L95.6532 208.6C95.4043 208.331 95.2035 208.011 95.0518 207.637L94.8664 207.712ZM95.5064 208.736L95.365 208.877C95.6629 209.175 96.0174 209.404 96.4259 209.562L96.4984 209.376L96.5709 209.19C96.2114 209.05 95.9046 208.851 95.6479 208.595L95.5064 208.736ZM96.4984 209.376L96.4259 209.562C96.8355 209.722 97.2818 209.8 97.7624 209.8V209.6V209.4C97.3258 209.4 96.9293 209.329 96.5709 209.19L96.4984 209.376ZM97.7624 209.6V209.8C98.3246 209.8 98.8371 209.682 99.2954 209.441L99.2024 209.264L99.1095 209.087C98.7144 209.294 98.2669 209.4 97.7624 209.4V209.6ZM99.2024 209.264L99.2936 209.442C99.7574 209.204 100.177 208.861 100.555 208.418L100.402 208.288L100.25 208.158C99.902 208.568 99.5222 208.876 99.1113 209.086L99.2024 209.264ZM100.402 208.288L100.268 208.436L102.284 210.26L102.418 210.112L102.553 209.964L100.537 208.14L100.402 208.288ZM102.418 210.112L102.263 209.986C101.739 210.633 101.082 211.137 100.288 211.498L100.37 211.68L100.453 211.862C101.302 211.476 102.009 210.935 102.574 210.238L102.418 210.112ZM100.37 211.68L100.289 211.497C99.5077 211.847 98.6136 212.024 97.6024 212.024V212.224V212.424C98.6606 212.424 99.6119 212.238 100.452 211.863L100.37 211.68ZM105.018 210.864L105.157 210.721L105.157 210.721L105.018 210.864ZM103.626 200.8V200.6H103.426V200.8H103.626ZM106.794 200.8H106.994V200.6H106.794V200.8ZM107.354 208.976L107.205 209.11L107.207 209.112L107.354 208.976ZM110.474 208.976L110.325 208.842L110.474 208.976ZM111.034 200.8V200.6H110.834V200.8H111.034ZM114.154 200.8H114.354V200.6H114.154V200.8ZM112.762 210.864L112.622 210.721L112.762 210.864ZM108.89 212.224V212.024C107.273 212.024 106.038 211.582 105.157 210.721L105.018 210.864L104.878 211.007C105.853 211.96 107.199 212.424 108.89 212.424V212.224ZM105.018 210.864L105.157 210.721C104.278 209.862 103.826 208.634 103.826 207.008H103.626H103.426C103.426 208.71 103.901 210.053 104.878 211.007L105.018 210.864ZM103.626 207.008H103.826V200.8H103.626H103.426V207.008H103.626ZM103.626 200.8V201H106.794V200.8V200.6H103.626V200.8ZM106.794 200.8H106.594V206.912H106.794H106.994V200.8H106.794ZM106.794 206.912H106.594C106.594 207.889 106.782 208.638 107.205 209.11L107.354 208.976L107.502 208.842C107.179 208.482 106.994 207.855 106.994 206.912H106.794ZM107.354 208.976L107.207 209.112C107.635 209.576 108.215 209.8 108.922 209.8V209.6V209.4C108.306 209.4 107.84 209.208 107.501 208.84L107.354 208.976ZM108.922 209.6V209.8C109.628 209.8 110.204 209.576 110.622 209.11L110.474 208.976L110.325 208.842C109.996 209.208 109.537 209.4 108.922 209.4V209.6ZM110.474 208.976L110.622 209.11C111.045 208.638 111.234 207.889 111.234 206.912H111.034H110.834C110.834 207.855 110.648 208.482 110.325 208.842L110.474 208.976ZM111.034 206.912H111.234V200.8H111.034H110.834V206.912H111.034ZM111.034 200.8V201H114.154V200.8V200.6H111.034V200.8ZM114.154 200.8H113.954V207.008H114.154H114.354V200.8H114.154ZM114.154 207.008H113.954C113.954 208.634 113.501 209.862 112.622 210.721L112.762 210.864L112.901 211.007C113.878 210.053 114.354 208.71 114.354 207.008H114.154ZM112.762 210.864L112.622 210.721C111.741 211.582 110.506 212.024 108.89 212.024V212.224V212.424C110.58 212.424 111.926 211.96 112.901 211.007L112.762 210.864ZM116.3 212H116.1V212.2H116.3V212ZM116.3 200.8V200.6H116.1V200.8H116.3ZM124.06 201.296L123.978 201.478L123.979 201.479L124.06 201.296ZM125.788 202.736L125.62 202.844L125.62 202.846L125.788 202.736ZM125.788 207.136L125.955 207.246L125.955 207.246L125.788 207.136ZM124.06 208.576L124.142 208.758L124.143 208.758L124.06 208.576ZM118.06 209.072L117.92 208.929L117.569 209.272H118.06V209.072ZM119.468 207.696H119.668V207.221L119.328 207.553L119.468 207.696ZM119.468 212V212.2H119.668V212H119.468ZM119.468 208.032L119.324 208.171L119.668 208.527V208.032H119.468ZM118.06 206.576V206.376H117.588L117.916 206.715L118.06 206.576ZM122.7 206.144L122.568 205.993L122.566 205.995L122.7 206.144ZM122.7 203.728L122.566 203.877L122.568 203.879L122.7 203.728ZM118.06 203.296L117.916 203.157L117.588 203.496H118.06V203.296ZM119.468 201.84H119.668V201.345L119.324 201.701L119.468 201.84ZM116.3 212H116.5V200.8H116.3H116.1V212H116.3ZM116.3 200.8V201H121.42V200.8V200.6H116.3V200.8ZM121.42 200.8V201C122.423 201 123.273 201.162 123.978 201.478L124.06 201.296L124.142 201.114C123.374 200.769 122.465 200.6 121.42 200.6V200.8ZM124.06 201.296L123.979 201.479C124.693 201.795 125.237 202.251 125.62 202.844L125.788 202.736L125.956 202.628C125.527 201.963 124.92 201.458 124.141 201.113L124.06 201.296ZM125.788 202.736L125.62 202.846C126.001 203.427 126.196 204.123 126.196 204.944H126.396H126.596C126.596 204.058 126.385 203.282 125.955 202.626L125.788 202.736ZM126.396 204.944H126.196C126.196 205.753 126.002 206.445 125.62 207.026L125.788 207.136L125.955 207.246C126.385 206.59 126.596 205.82 126.596 204.944H126.396ZM125.788 207.136L125.62 207.026C125.238 207.61 124.693 208.067 123.977 208.394L124.06 208.576L124.143 208.758C124.92 208.403 125.527 207.899 125.955 207.246L125.788 207.136ZM124.06 208.576L123.978 208.394C123.273 208.71 122.423 208.872 121.42 208.872V209.072V209.272C122.465 209.272 123.374 209.103 124.142 208.758L124.06 208.576ZM121.42 209.072V208.872H118.06V209.072V209.272H121.42V209.072ZM118.06 209.072L118.199 209.215L119.607 207.839L119.468 207.696L119.328 207.553L117.92 208.929L118.06 209.072ZM119.468 207.696H119.268V212H119.468H119.668V207.696H119.468ZM119.468 212V211.8H116.3V212V212.2H119.468V212ZM119.468 208.032L119.611 207.893L118.203 206.437L118.06 206.576L117.916 206.715L119.324 208.171L119.468 208.032ZM118.06 206.576V206.776H121.228V206.576V206.376H118.06V206.576ZM121.228 206.576V206.776C121.913 206.776 122.461 206.628 122.833 206.293L122.7 206.144L122.566 205.995C122.298 206.236 121.865 206.376 121.228 206.376V206.576ZM122.7 206.144L122.831 206.295C123.213 205.962 123.396 205.503 123.396 204.944H123.196H122.996C122.996 205.409 122.848 205.75 122.568 205.993L122.7 206.144ZM123.196 204.944H123.396C123.396 204.376 123.214 203.91 122.831 203.577L122.7 203.728L122.568 203.879C122.847 204.122 122.996 204.467 122.996 204.944H123.196ZM122.7 203.728L122.833 203.579C122.461 203.244 121.913 203.096 121.228 203.096V203.296V203.496C121.865 203.496 122.298 203.636 122.566 203.877L122.7 203.728ZM121.228 203.296V203.096H118.06V203.296V203.496H121.228V203.296ZM118.06 203.296L118.203 203.435L119.611 201.979L119.468 201.84L119.324 201.701L117.916 203.157L118.06 203.296ZM119.468 201.84H119.268V208.032H119.468H119.668V201.84H119.468ZM127.94 212H127.74V212.2H127.94V212ZM127.94 200.8V200.6H127.74V200.8H127.94ZM131.108 200.8H131.308V200.6H131.108V200.8ZM131.108 212V212.2H131.308V212H131.108ZM127.94 212H128.14V200.8H127.94H127.74V212H127.94ZM127.94 200.8V201H131.108V200.8V200.6H127.94V200.8ZM131.108 200.8H130.908V212H131.108H131.308V200.8H131.108ZM131.108 212V211.8H127.94V212V212.2H131.108V212ZM136.274 205.136V204.936H136.074V205.136H136.274ZM141.474 205.136H141.674V204.936H141.474V205.136ZM141.474 207.504V207.704H141.674V207.504H141.474ZM136.274 207.504H136.074V207.704H136.274V207.504ZM136.498 209.552H136.298V209.752H136.498V209.552ZM142.354 209.552H142.554V209.352H142.354V209.552ZM142.354 212V212.2H142.554V212H142.354ZM133.362 212H133.162V212.2H133.362V212ZM133.362 200.8V200.6H133.162V200.8H133.362ZM142.146 200.8H142.346V200.6H142.146V200.8ZM142.146 203.248V203.448H142.346V203.248H142.146ZM136.498 203.248V203.048H136.298V203.248H136.498ZM136.274 205.136V205.336H141.474V205.136V204.936H136.274V205.136ZM141.474 205.136H141.274V207.504H141.474H141.674V205.136H141.474ZM141.474 207.504V207.304H136.274V207.504V207.704H141.474V207.504ZM136.274 207.504H136.474V205.136H136.274H136.074V207.504H136.274ZM136.498 209.552V209.752H142.354V209.552V209.352H136.498V209.552ZM142.354 209.552H142.154V212H142.354H142.554V209.552H142.354ZM142.354 212V211.8H133.362V212V212.2H142.354V212ZM133.362 212H133.562V200.8H133.362H133.162V212H133.362ZM133.362 200.8V201H142.146V200.8V200.6H133.362V200.8ZM142.146 200.8H141.946V203.248H142.146H142.346V200.8H142.146ZM142.146 203.248V203.048H136.498V203.248V203.448H142.146V203.248ZM136.498 203.248H136.298V209.552H136.498H136.698V203.248H136.498ZM144.112 212H143.912V212.2H144.112V212ZM144.112 200.8V200.6H143.912V200.8H144.112ZM152.672 201.488L152.584 201.668L152.584 201.668L152.672 201.488ZM154.864 203.424L154.695 203.53L154.696 203.532L154.864 203.424ZM154.864 209.376L154.695 209.269L154.695 209.27L154.864 209.376ZM147.28 209.472H147.08V209.672H147.28V209.472ZM150.944 209.12L151.034 209.299L151.035 209.298L150.944 209.12ZM152.064 208.064L152.237 208.165L152.238 208.163L152.064 208.064ZM152.064 204.736L152.237 204.635L152.237 204.635L152.064 204.736ZM150.944 203.696L150.852 203.873L150.856 203.876L150.944 203.696ZM147.28 203.328V203.128H147.08V203.328H147.28ZM144.112 212H144.312V200.8H144.112H143.912V212H144.112ZM144.112 200.8V201H149.408V200.8V200.6H144.112V200.8ZM149.408 200.8V201C150.621 201 151.678 201.225 152.584 201.668L152.672 201.488L152.76 201.308C151.789 200.834 150.67 200.6 149.408 200.6V200.8ZM152.672 201.488L152.584 201.668C153.492 202.111 154.193 202.732 154.695 203.53L154.864 203.424L155.034 203.318C154.49 202.452 153.73 201.782 152.76 201.308L152.672 201.488ZM154.864 203.424L154.696 203.532C155.205 204.327 155.464 205.28 155.464 206.4H155.664H155.864C155.864 205.216 155.59 204.185 155.033 203.316L154.864 203.424ZM155.664 206.4H155.464C155.464 207.509 155.205 208.463 154.695 209.269L154.864 209.376L155.033 209.483C155.59 208.604 155.864 207.574 155.864 206.4H155.664ZM154.864 209.376L154.695 209.27C154.193 210.068 153.492 210.689 152.584 211.132L152.672 211.312L152.76 211.492C153.73 211.018 154.49 210.348 155.034 209.482L154.864 209.376ZM152.672 211.312L152.584 211.132C151.678 211.575 150.621 211.8 149.408 211.8V212V212.2C150.67 212.2 151.789 211.966 152.76 211.492L152.672 211.312ZM149.408 212V211.8H144.112V212V212.2H149.408V212ZM147.28 209.472V209.672H149.28V209.472V209.272H147.28V209.472ZM149.28 209.472V209.672C149.945 209.672 150.531 209.55 151.034 209.299L150.944 209.12L150.855 208.941C150.419 209.159 149.896 209.272 149.28 209.272V209.472ZM150.944 209.12L151.035 209.298C151.549 209.036 151.951 208.657 152.237 208.165L152.064 208.064L151.891 207.963C151.644 208.388 151.3 208.714 150.853 208.942L150.944 209.12ZM152.064 208.064L152.238 208.163C152.525 207.658 152.664 207.068 152.664 206.4H152.464H152.264C152.264 207.012 152.137 207.531 151.89 207.965L152.064 208.064ZM152.464 206.4H152.664C152.664 205.722 152.525 205.131 152.237 204.635L152.064 204.736L151.891 204.837C152.137 205.258 152.264 205.777 152.264 206.4H152.464ZM152.064 204.736L152.237 204.635C151.95 204.142 151.547 203.768 151.032 203.516L150.944 203.696L150.856 203.876C151.301 204.093 151.645 204.412 151.891 204.837L152.064 204.736ZM150.944 203.696L151.037 203.519C150.534 203.256 149.946 203.128 149.28 203.128V203.328V203.528C149.895 203.528 150.416 203.646 150.852 203.873L150.944 203.696ZM149.28 203.328V203.128H147.28V203.328V203.528H149.28V203.328ZM147.28 203.328H147.08V209.472H147.28H147.48V203.328H147.28Z" fill="black" mask="url(#path-3-outside-1_87_319)"/>
<path d="M42.3096 107.535L42.0322 107.396L41.1162 106.941L40.46 106.072L39.5 103.687V101.288L40.2598 96.7607L40.2666 96.7197V95.4014H40.4307L40.5117 95L41.0225 92.4619L41.0254 92.4512L41.0264 92.4404L41.5342 89.1582L42.5566 83.8291L42.5605 83.8057L42.8135 82.041L43.3174 79.0342L44.3037 75.8486L45.9805 73.7061L47.8867 72.5225L49.5439 72.0527H52.1934L54.8721 73.0195L56.0312 73.71L59.2871 77.9404L60.2969 79.4453L60.3711 79.5557L60.4893 79.6143L60.8643 79.7998L61.8115 81.4463L61.8281 81.4756L61.8486 81.502L65.1689 85.8164L65.3623 86.0684L65.6729 86L67.9717 85.4922L68.0205 85.4814L68.0664 85.4609L70.3564 84.4492L76.2188 82.1709L76.2695 82.1514L76.3145 82.1211L77.8467 81.1064L77.9902 81.0117L78.0449 80.8486L78.5244 79.417L81.5254 75.9404L81.5654 75.8936L81.5938 75.8389L83.6143 71.8213L84.3965 70.8047L84.4092 70.7881L84.4199 70.7715L84.8877 70.0479L84.9678 69.9238V69.4277L85.2539 69.9258L85.4971 73.0508L85.0078 75.9648L84.0391 77.8877L82.6865 79.6816H82.001L81.9307 80.0986L81.6758 81.6221L81.6387 81.8428L81.7793 82.0186L82.7656 83.2441L82.9453 83.5986V85.3584L82.0479 86.6963L80.6152 87.8809L76.6025 89.875L71.2441 92.1572L71.2305 92.1631L71.2178 92.1699L68.71 93.415L64.7646 94.3945L62.6797 94.1641L60.293 92.5029L57.7871 89.2656L57.7803 89.2578L57.7744 89.251L56.4971 87.7275L56.4297 87.6475L56.3369 87.6016L56.0107 87.4395L55.8223 86.875L54.8545 86.9512L53.0664 97.6104L53.0596 97.6514V98.9023L53.5049 98.9512L55.8037 99.2051L55.8252 99.208H55.8477L67.0117 99.46L69.1768 100.177L70.5762 101.104L71.7529 102.74L72.999 106.702L75.2939 117.34L75.2949 117.344L76.3164 121.912L76.8252 124.439L76.8271 124.45L77.8252 128.915L77.5918 130.079L77.5781 130.146L77.583 130.214L77.8135 133.432L75.665 134.5H74.8506L72.4238 128.109L70.6504 122.447L69.6357 115.764L69.6289 115.72L69.6143 115.677L67.5713 109.713L67.4629 109.398L67.1309 109.376L63.2998 109.122L63.2744 109.121H63.249L56.0967 109.375H50.2441L45.2246 109.125L43.0186 108.395L42.3096 108.042V107.535Z" fill="white" stroke="#324154"/>
<path d="M51.7988 63.749L51.5137 63.6133L51.2031 63.4648L50.5 60.792V57.9727L51.2383 55.6328L52.4648 53.5361L54.4268 51.9053L56.9336 50.7139L57.6094 50.5H62.375L64.8154 51.4258L67.5293 53.5361L69.0107 56.3506L69.5 58.207V60.5312L68.5059 63.5977L67.3936 65.292H66.6426V66.0283L64.8193 67.3262L62.5332 68.293L62.5225 68.2969L62.5127 68.3018L62.0957 68.5H57.6279L54.6748 67.3311L52.708 65.6963L51.7988 64.4004V63.749Z" fill="white" stroke="#324154"/>
<mask id="path-7-inside-2_87_319" fill="white">
<path d="M131.541 64L129.992 64.2262L129.107 64.6787L128 66.7148V69.882L128.443 71.918H128.885L129.328 73.0492L130.877 75.0852L133.533 77.1213H133.975L134.418 78.4787L134.639 78.9311L135.082 79.6098L134.861 80.5148L134.418 81.4197V84.3607L135.525 85.4918L136.631 86.3967L140.615 88.659L142.164 89.1115L142.385 89.5639L143.934 90.0164L144.156 90.4689L148.139 92.2787L151.68 94.0885L152.787 94.7672H155L156.549 94.3148L158.32 93.1836L160.09 91.3738L161.197 90.2426L162.967 88.2066L164.074 86.623L164.516 87.5279L166.508 96.577V97.2557L151.459 97.482L149.025 98.3869L146.811 100.423L145.926 101.78L144.82 106.079L143.27 112.639L143.049 113.77L141.721 119.426L141.057 122.141L139.73 128.475V130.285L140.615 131.643L141.279 132.321H141.721L141.943 132.774L143.049 133H145.041V132.548L146.148 132.321L147.918 130.738L149.025 128.475L149.91 125.534V124.856L150.352 124.63L151.016 122.367L152.566 114.353V112.639L153.672 110.867L155 109.02H155.631L157.656 109.472H175.361L177.131 109.02V108.567L178.016 108.341L180.008 106.984L181.557 104.495L182 100.875L181.336 96.1246L178.902 85.718L178.68 84.5869L178.459 82.777H178.016L177.795 80.9672L176.467 75.0852L174.918 71.918L173.369 70.3344L172.041 69.4295L169.385 68.7508H167.393L164.959 69.4295L162.967 70.5607L161.861 71.6918L159.648 74.6328L158.32 76.8951L153.672 83.9082L152.566 84.3607L147.254 81.8721L143.713 80.2885L140.393 78.7049L139.287 78.4787L138.844 77.3475L137.738 75.0852L137.516 71.2393L136.631 68.7508L135.082 66.2623L133.311 64.6787L131.541 64Z"/>
</mask>
<path d="M131.541 64L129.992 64.2262L129.107 64.6787L128 66.7148V69.882L128.443 71.918H128.885L129.328 73.0492L130.877 75.0852L133.533 77.1213H133.975L134.418 78.4787L134.639 78.9311L135.082 79.6098L134.861 80.5148L134.418 81.4197V84.3607L135.525 85.4918L136.631 86.3967L140.615 88.659L142.164 89.1115L142.385 89.5639L143.934 90.0164L144.156 90.4689L148.139 92.2787L151.68 94.0885L152.787 94.7672H155L156.549 94.3148L158.32 93.1836L160.09 91.3738L161.197 90.2426L162.967 88.2066L164.074 86.623L164.516 87.5279L166.508 96.577V97.2557L151.459 97.482L149.025 98.3869L146.811 100.423L145.926 101.78L144.82 106.079L143.27 112.639L143.049 113.77L141.721 119.426L141.057 122.141L139.73 128.475V130.285L140.615 131.643L141.279 132.321H141.721L141.943 132.774L143.049 133H145.041V132.548L146.148 132.321L147.918 130.738L149.025 128.475L149.91 125.534V124.856L150.352 124.63L151.016 122.367L152.566 114.353V112.639L153.672 110.867L155 109.02H155.631L157.656 109.472H175.361L177.131 109.02V108.567L178.016 108.341L180.008 106.984L181.557 104.495L182 100.875L181.336 96.1246L178.902 85.718L178.68 84.5869L178.459 82.777H178.016L177.795 80.9672L176.467 75.0852L174.918 71.918L173.369 70.3344L172.041 69.4295L169.385 68.7508H167.393L164.959 69.4295L162.967 70.5607L161.861 71.6918L159.648 74.6328L158.32 76.8951L153.672 83.9082L152.566 84.3607L147.254 81.8721L143.713 80.2885L140.393 78.7049L139.287 78.4787L138.844 77.3475L137.738 75.0852L137.516 71.2393L136.631 68.7508L135.082 66.2623L133.311 64.6787L131.541 64Z" fill="white" stroke="#324154" stroke-width="2" mask="url(#path-7-inside-2_87_319)"/>
<path d="M168.066 65.5908L168.343 65.4531L169.189 65.0293L170.747 63.249L171.365 62.4238L171.576 61.3682L171.624 61.1289L171.843 61.0195L172.082 60.8994L172.5 58.3916V56.167L171.831 53.7119L170.95 51.9502L168.938 49.7139L166.95 48.3887L164.06 47.5H160.715L158.053 48.3867L155.606 49.9434L153.827 52.166L152.967 53.8848V54.7754L152.69 54.9141L152.5 55.0088V60.0332H152.877L152.957 60.4355L153.174 61.5166L154.497 63.7227L156.06 65.2852L158.496 67.0566L161.371 67.5H163.643L165.733 67.3096V66.9229L166.096 66.8193L167.653 66.374L168.066 66.0986V65.5908Z" fill="white" stroke="#324154"/>
<path d="M30.5771 106.808L30.5703 106.768L27.5 88.2422V79.5H30.7256L32.6729 86.3564L32.6787 86.376L32.6855 86.3945L34.2139 90.4941L34.7148 92.5127L36.7568 104.832V110.443H66.5V142.5H62.3721V121.821H36.7568V129.337L35.8145 135.692L33.7666 142.5H29.4756L30.5732 133.422L30.5771 133.392V106.808Z" fill="#324154" stroke="#324154"/>
<path d="M139.478 105.5L141.5 127.619V142.5H137.157L133.172 133.588L129.05 118.222L128.991 118.004L128.789 117.903L124.656 115.85L124.551 115.797H97.4492L97.3438 115.85L93.2109 117.903L93.0156 118.001L92.9541 118.209L87.7939 135.643L84.8379 142.5H80.5V127.619L82.5225 105.5H139.478Z" fill="#324154" stroke="#324154"/>
<path d="M143.636 96.5L144.459 98.5L143.636 100.5H78.3643L77.54 98.5L78.3643 96.5H143.636Z" fill="#324154" stroke="#324154"/>
<path d="M191.423 106.808L191.43 106.768L194.5 88.2422V79.5H191.274L189.327 86.3564L189.321 86.376L189.314 86.3945L187.786 90.4941L187.285 92.5127L185.243 104.832V110.443H155.5V142.5H159.628V121.821H185.243V129.337L186.186 135.692L188.233 142.5H192.524L191.427 133.422L191.423 133.392V106.808Z" fill="#324154" stroke="#324154"/>
</svg>
